<?xml version="1.0" standalone="no"?>
<!DOCTYPE svg PUBLIC "-//W3C//DTD SVG 20010904//EN"
 "http://www.w3.org/TR/2001/REC-SVG-20010904/DTD/svg10.dtd">
<svg version="1.0" xmlns="http://www.w3.org/2000/svg"
 width="512.000000pt" height="512.000000pt" viewBox="0 0 512.000000 512.000000"
 preserveAspectRatio="xMidYMid meet">
<metadata>
Created by potrace 1.11, written by Peter Selinger 2001-2013
</metadata>
<g transform="translate(0.000000,512.000000) scale(0.100000,-0.100000)"
fill="#000000" stroke="none">
<path d="M0 2560 l0 -2560 2560 0 2560 0 0 2560 0 2560 -2560 0 -2560 0 0
-2560z m1825 2115 c138 -15 340 -48 429 -71 178 -45 442 -130 452 -145 3 -5
-2 -25 -12 -44 -12 -27 -22 -35 -38 -32 -20 3 -156 43 -186 54 -8 3 -19 7 -25
8 -244 61 -387 90 -485 101 -19 2 -78 8 -129 15 -124 14 -370 14 -496 -1 -116
-14 -301 -59 -371 -90 -71 -32 -186 -114 -237 -169 -52 -56 -96 -128 -108
-179 -9 -36 -12 -241 -4 -292 2 -14 8 -56 14 -95 14 -91 14 -105 1 -85 -5 8
-10 11 -10 5 0 -10 -26 37 -83 150 -66 132 -56 270 35 463 46 99 154 202 278
266 149 76 321 127 485 142 39 3 71 7 73 9 9 8 313 1 417 -10z m1601 -216
c248 -45 425 -290 385 -532 -32 -190 -171 -343 -356 -392 -313 -81 -626 202
-577 521 36 230 230 405 458 413 17 0 57 -4 90 -10z m-653 -765 c14 -27 43
-70 65 -95 l41 -46 -72 -18 c-260 -66 -487 -182 -677 -346 l-77 -67 -17 60
c-23 83 -56 145 -111 205 l-46 52 43 11 c284 71 508 187 724 373 l67 58 18
-69 c10 -38 29 -92 42 -118z m1426 -164 c86 -99 121 -142 121 -151 0 -5 11
-20 25 -35 14 -15 28 -38 31 -51 4 -13 10 -23 14 -23 9 0 92 -166 115 -230 50
-138 67 -280 45 -380 -17 -74 -71 -193 -84 -180 -7 7 -7 13 0 20 16 16 7 254
-13 330 -9 36 -17 72 -18 80 0 9 -4 20 -8 26 -3 6 -18 44 -33 84 -44 124 -168
308 -314 470 -36 40 -66 76 -68 80 -2 5 9 30 24 55 l27 46 34 -33 c20 -18 65
-67 102 -108z m-2693 -81 c248 -45 423 -283 386 -525 -30 -193 -171 -350 -357
-399 -260 -67 -530 116 -576 392 -44 269 177 532 457 542 17 0 57 -4 90 -10z
m2214 -58 c0 -169 39 -499 86 -729 43 -212 158 -576 258 -821 14 -36 26 -68
26 -73 0 -4 -58 -8 -129 -8 -140 0 -215 -16 -300 -65 -24 -14 -45 -24 -46 -23
-1 2 -7 87 -13 189 -35 546 -137 1005 -318 1432 l-33 77 123 0 c135 0 214 17
291 64 22 13 43 25 48 25 4 1 7 -30 7 -68z m-2507 -1012 c45 -15 89 -19 192
-19 l134 0 -25 -57 c-14 -31 -37 -100 -52 -153 -24 -86 -27 -112 -27 -268 0
-149 -2 -171 -15 -166 -82 35 -138 44 -272 44 -130 0 -140 1 -133 18 30 68 77
226 90 298 8 48 15 143 15 211 0 115 1 125 18 118 9 -4 43 -16 75 -26z m32
-784 c184 -48 323 -200 356 -389 24 -142 -27 -293 -135 -402 -187 -187 -475
-187 -662 0 -187 187 -187 476 0 661 126 125 283 171 441 130z m2850 0 c234
-61 394 -298 356 -528 -34 -205 -193 -364 -398 -398 -303 -50 -586 235 -534
537 48 274 317 456 576 389z"/>
</g>
</svg>
